name ./resultDataOpenSim/trcMotMarkerGrf/sub06/grf-12-08.mot
datacolumns 19
datarows 22
range 1.55600000 1.64000000
endheader

                time	     ground_force_vx	     ground_force_vy	     ground_force_vz	     ground_force_px	     ground_force_py	     ground_force_pz	   l_ground_force_vx	   l_ground_force_vy	   l_ground_force_vz	   l_ground_force_px	   l_ground_force_py	   l_ground_force_pz	     ground_torque_x	     ground_torque_y	     ground_torque_z	   l_ground_torque_x	   l_ground_torque_y	   l_ground_torque_z	
          1.55600000	        162.03934233	        655.10564292	        -44.21292868	          0.86396957	          0.00000000	          0.10347322	          0.00000000	          0.00000000	          0.00000000	          0.00000000	          0.00000000	          0.00000000	          0.00000000	          3.68676116	          0.00000000	          0.00000000	          0.00000000	          0.00000000	
          1.56000000	        167.13065097	        654.25254775	        -43.65300317	          0.86405286	          0.00000000	          0.10326433	          0.00000000	          0.00000000	          0.00000000	          0.00000000	          0.00000000	          0.00000000	          0.00000000	          3.58745148	          0.00000000	          0.00000000	          0.00000000	          0.00000000	
          1.56400000	        171.95796420	        651.88151965	        -42.77190348	          0.86411861	          0.00000000	          0.10303887	          0.00000000	          0.00000000	          0.00000000	          0.00000000	          0.00000000	          0.00000000	          0.00000000	          3.48273131	          0.00000000	          0.00000000	          0.00000000	          0.00000000	
          1.56800000	        176.52243705	        647.89751480	        -41.69389644	          0.86416445	          0.00000000	          0.10279993	          0.00000000	          0.00000000	          0.00000000	          0.00000000	          0.00000000	          0.00000000	          0.00000000	          3.38212742	          0.00000000	          0.00000000	          0.00000000	          0.00000000	
          1.57200000	        180.88514418	        642.19695374	        -40.54115718	          0.86418024	          0.00000000	          0.10255350	          0.00000000	          0.00000000	          0.00000000	          0.00000000	          0.00000000	          0.00000000	          0.00000000	          3.29282508	          0.00000000	          0.00000000	          0.00000000	          0.00000000	
          1.57600000	        185.17991033	        634.66183828	        -39.41501010	          0.86414475	          0.00000000	          0.10230631	          0.00000000	          0.00000000	          0.00000000	          0.00000000	          0.00000000	          0.00000000	          0.00000000	          3.21692055	          0.00000000	          0.00000000	          0.00000000	          0.00000000	
          1.58000000	        189.56644654	        625.15597350	        -38.39730804	          0.86400859	          0.00000000	          0.10206514	          0.00000000	          0.00000000	          0.00000000	          0.00000000	          0.00000000	          0.00000000	          0.00000000	          3.15013740	          0.00000000	          0.00000000	          0.00000000	          0.00000000	
          1.58400000	        194.12869721	        613.51892726	        -37.54715656	          0.86371360	          0.00000000	          0.10183852	          0.00000000	          0.00000000	          0.00000000	          0.00000000	          0.00000000	          0.00000000	          0.00000000	          3.08292845	          0.00000000	          0.00000000	          0.00000000	          0.00000000	
          1.58800000	        198.79023685	        599.56032103	        -36.86347745	          0.86325141	          0.00000000	          0.10163789	          0.00000000	          0.00000000	          0.00000000	          0.00000000	          0.00000000	          0.00000000	          0.00000000	          3.00357473	          0.00000000	          0.00000000	          0.00000000	          0.00000000	
          1.59200000	        203.30705620	        583.04931478	        -36.25535261	          0.86263765	          0.00000000	          0.10145874	          0.00000000	          0.00000000	          0.00000000	          0.00000000	          0.00000000	          0.00000000	          0.00000000	          2.90154831	          0.00000000	          0.00000000	          0.00000000	          0.00000000	
          1.59600000	        207.30143620	        563.67820829	        -35.56366306	          0.86186661	          0.00000000	          0.10128845	          0.00000000	          0.00000000	          0.00000000	          0.00000000	          0.00000000	          0.00000000	          0.00000000	          2.76940136	          0.00000000	          0.00000000	          0.00000000	          0.00000000	
          1.60000000	        210.27589766	        541.02651939	        -34.59816948	          0.86092777	          0.00000000	          0.10112999	          0.00000000	          0.00000000	          0.00000000	          0.00000000	          0.00000000	          0.00000000	          0.00000000	          2.60278359	          0.00000000	          0.00000000	          0.00000000	          0.00000000	
          1.60400000	        211.63327165	        514.59321497	        -33.16742604	          0.85983261	          0.00000000	          0.10098185	          0.00000000	          0.00000000	          0.00000000	          0.00000000	          0.00000000	          0.00000000	          0.00000000	          2.39971011	          0.00000000	          0.00000000	          0.00000000	          0.00000000	
          1.60800000	        210.73283172	        483.91098421	        -31.11949368	          0.85863183	          0.00000000	          0.10083516	          0.00000000	          0.00000000	          0.00000000	          0.00000000	          0.00000000	          0.00000000	          0.00000000	          2.16082927	          0.00000000	          0.00000000	          0.00000000	          0.00000000	
          1.61200000	        206.94020621	        448.70468136	        -28.37378483	          0.85737708	          0.00000000	          0.10070280	          0.00000000	          0.00000000	          0.00000000	          0.00000000	          0.00000000	          0.00000000	          0.00000000	          1.89153969	          0.00000000	          0.00000000	          0.00000000	          0.00000000	
          1.61600000	        199.64767493	        409.04803176	        -24.92303976	          0.85613315	          0.00000000	          0.10060986	          0.00000000	          0.00000000	          0.00000000	          0.00000000	          0.00000000	          0.00000000	          0.00000000	          1.60492087	          0.00000000	          0.00000000	          0.00000000	          0.00000000	
          1.62000000	        188.32720537	        365.49427650	        -20.83767348	          0.85502215	          0.00000000	          0.10059205	          0.00000000	          0.00000000	          0.00000000	          0.00000000	          0.00000000	          0.00000000	          0.00000000	          1.32317638	          0.00000000	          0.00000000	          0.00000000	          0.00000000	
          1.62400000	        172.68368286	        319.18364536	        -16.28789055	          0.85423720	          0.00000000	          0.10069801	          0.00000000	          0.00000000	          0.00000000	          0.00000000	          0.00000000	          0.00000000	          0.00000000	          1.07552467	          0.00000000	          0.00000000	          0.00000000	          0.00000000	
          1.62800000	        152.86075915	        271.86881416	        -11.54640139	          0.85408072	          0.00000000	          0.10094499	          0.00000000	          0.00000000	          0.00000000	          0.00000000	          0.00000000	          0.00000000	          0.00000000	          0.89194330	          0.00000000	          0.00000000	          0.00000000	          0.00000000	
          1.63200000	        129.57431593	        225.72886125	         -6.95509005	          0.85499006	          0.00000000	          0.10125973	          0.00000000	          0.00000000	          0.00000000	          0.00000000	          0.00000000	          0.00000000	          0.00000000	          0.79424706	          0.00000000	          0.00000000	          0.00000000	          0.00000000	
          1.63600000	        104.10289857	        182.92992211	         -2.87052399	          0.85757292	          0.00000000	          0.10147933	          0.00000000	          0.00000000	          0.00000000	          0.00000000	          0.00000000	          0.00000000	          0.00000000	          0.78777719	          0.00000000	          0.00000000	          0.00000000	          0.00000000	
          1.64000000	         78.12705987	        145.09070672	          0.40631117	          0.86253125	          0.00000000	          0.10140372	          0.00000000	          0.00000000	          0.00000000	          0.00000000	          0.00000000	          0.00000000	          0.00000000	          0.85747940	          0.00000000	          0.00000000	          0.00000000	          0.00000000	
